<svg width="1440" height="121" viewBox="0 0 1440 121" fill="none" xmlns="http://www.w3.org/2000/svg">
<g filter="url(#filter0_n_1_136)">
<g clip-path="url(#clip0_1_136)">
<mask id="mask0_1_136" style="mask-type:luminance" maskUnits="userSpaceOnUse" x="-61" y="60" width="62" height="61">
<path d="M-60.2656 60.0906H0.332249V120.517H-60.2656V60.0906Z" fill="white"/>
</mask>
<g mask="url(#mask0_1_136)">
<path d="M-59.9478 60.2646V120.532H0.291862V60.2646H-59.9478Z" fill="#CA2F06"/>
</g>
<mask id="mask1_1_136" style="mask-type:luminance" maskUnits="userSpaceOnUse" x="-1" y="0" width="62" height="61">
<path d="M-0.294922 0H60.5938V60.7191H-0.294922V0Z" fill="white"/>
</mask>
<g mask="url(#mask1_1_136)">
<path d="M0.292969 0.00476074V60.265H60.5054V0.00476074H0.292969Z" fill="#CA2F06"/>
</g>
<mask id="mask2_1_136" style="mask-type:luminance" maskUnits="userSpaceOnUse" x="59" y="60" width="62" height="61">
<path d="M59.9668 60.0906H120.856V120.517H59.9668V60.0906Z" fill="white"/>
</mask>
<g mask="url(#mask2_1_136)">
<path d="M60.5054 60.2649V120.532H120.73V60.2649H60.5054Z" fill="#CA2F06"/>
</g>
<mask id="mask3_1_136" style="mask-type:luminance" maskUnits="userSpaceOnUse" x="120" y="-1" width="62" height="62">
<path d="M120.229 -0.00012207H181.117V60.7189H120.229V-0.00012207Z" fill="white"/>
</mask>
<g mask="url(#mask3_1_136)">
<path d="M120.732 0.00476074V60.265H180.964V0.00476074H120.732Z" fill="#CA2F06"/>
</g>
<mask id="mask4_1_136" style="mask-type:luminance" maskUnits="userSpaceOnUse" x="180" y="60" width="62" height="61">
<path d="M180.64 60.0906H241.379V120.517H180.64V60.0906Z" fill="white"/>
</mask>
<g mask="url(#mask4_1_136)">
<path d="M180.964 60.2649V120.532H241.19V60.2649H180.964Z" fill="#CA2F06"/>
</g>
<mask id="mask5_1_136" style="mask-type:luminance" maskUnits="userSpaceOnUse" x="240" y="-1" width="62" height="62">
<path d="M240.752 -0.00012207H301.641V60.7189H240.752V-0.00012207Z" fill="white"/>
</mask>
<g mask="url(#mask5_1_136)">
<path d="M241.188 0.00476074V60.265H301.428V0.00476074H241.188Z" fill="#CA2F06"/>
</g>
<mask id="mask6_1_136" style="mask-type:luminance" maskUnits="userSpaceOnUse" x="301" y="60" width="61" height="61">
<path d="M301.014 60.0906H361.616V120.517H301.014V60.0906Z" fill="white"/>
</mask>
<g mask="url(#mask6_1_136)">
<path d="M301.429 60.2649V120.532H361.636V60.2649H301.429Z" fill="#CA2F06"/>
</g>
<mask id="mask7_1_136" style="mask-type:luminance" maskUnits="userSpaceOnUse" x="240" y="-1" width="62" height="62">
<path d="M240.406 -0.00012207H301.011V60.7189H240.406V-0.00012207Z" fill="white"/>
</mask>
<g mask="url(#mask7_1_136)">
<path d="M240.406 0.00476074V60.265H300.644V0.00476074H240.406Z" fill="#CA2F06"/>
</g>
<mask id="mask8_1_136" style="mask-type:luminance" maskUnits="userSpaceOnUse" x="300" y="60" width="62" height="61">
<path d="M300.383 60.0906H361.273V120.517H300.383V60.0906Z" fill="white"/>
</mask>
<g mask="url(#mask8_1_136)">
<path d="M300.642 60.2649V120.532H360.867V60.2649H300.642Z" fill="#CA2F06"/>
</g>
<mask id="mask9_1_136" style="mask-type:luminance" maskUnits="userSpaceOnUse" x="360" y="-1" width="62" height="62">
<path d="M360.645 -0.00012207H421.538V60.7189H360.645V-0.00012207Z" fill="white"/>
</mask>
<g mask="url(#mask9_1_136)">
<path d="M360.868 0.00476074V60.265H421.096V0.00476074H360.868Z" fill="#CA2F06"/>
</g>
<mask id="mask10_1_136" style="mask-type:luminance" maskUnits="userSpaceOnUse" x="420" y="60" width="62" height="61">
<path d="M420.904 60.0906H481.312V120.517H420.904V60.0906Z" fill="white"/>
</mask>
<g mask="url(#mask10_1_136)">
<path d="M421.096 60.2646V120.532H481.312V60.2646H421.096Z" fill="#CA2F06"/>
</g>
<mask id="mask11_1_136" style="mask-type:luminance" maskUnits="userSpaceOnUse" x="481" y="0" width="62" height="61">
<path d="M481.171 0H542.062V60.7191H481.171V0Z" fill="white"/>
</mask>
<g mask="url(#mask11_1_136)">
<path d="M481.312 0.00463867V60.2649H541.569V0.00463867H481.312Z" fill="#CA2F06"/>
</g>
<mask id="mask12_1_136" style="mask-type:luminance" maskUnits="userSpaceOnUse" x="541" y="60" width="62" height="61">
<path d="M541.428 60.0906H602.319V120.517H541.428V60.0906Z" fill="white"/>
</mask>
<g mask="url(#mask12_1_136)">
<path d="M541.569 60.2649V120.532H601.775V60.2649H541.569Z" fill="#CA2F06"/>
</g>
<mask id="mask13_1_136" style="mask-type:luminance" maskUnits="userSpaceOnUse" x="601" y="-1" width="62" height="62">
<path d="M601.694 -0.00012207H662.585V60.7189H601.694V-0.00012207Z" fill="white"/>
</mask>
<g mask="url(#mask13_1_136)">
<path d="M601.775 0.00476074V60.265H662.032V0.00476074H601.775Z" fill="#CA2F06"/>
</g>
<mask id="mask14_1_136" style="mask-type:luminance" maskUnits="userSpaceOnUse" x="661" y="60" width="62" height="61">
<path d="M661.951 60.0906H722.842V120.517H661.951V60.0906Z" fill="white"/>
</mask>
<g mask="url(#mask14_1_136)">
<path d="M662.032 60.2648V120.532H722.248V60.2648H662.032Z" fill="#CA2F06"/>
</g>
<mask id="mask15_1_136" style="mask-type:luminance" maskUnits="userSpaceOnUse" x="722" y="-1" width="61" height="62">
<path d="M722.218 -0.00012207H782.474V60.7189H722.218V-0.00012207Z" fill="white"/>
</mask>
<g mask="url(#mask15_1_136)">
<path d="M722.249 0.00476074V60.265H782.465V0.00476074H722.249Z" fill="#CA2F06"/>
</g>
<mask id="mask16_1_136" style="mask-type:luminance" maskUnits="userSpaceOnUse" x="782" y="60" width="61" height="61">
<path d="M782.143 60.0906H842.741V120.517H782.143V60.0906Z" fill="white"/>
</mask>
<g mask="url(#mask16_1_136)">
<path d="M782.455 60.2649V120.532H842.701V60.2649H782.455Z" fill="#CA2F06"/>
</g>
<mask id="mask17_1_136" style="mask-type:luminance" maskUnits="userSpaceOnUse" x="842" y="-1" width="61" height="62">
<path d="M842.107 -0.000366211H902.998V60.7187H842.107V-0.000366211Z" fill="white"/>
</mask>
<g mask="url(#mask17_1_136)">
<path d="M842.701 0.00476074V60.265H902.907V0.00476074H842.701Z" fill="#CA2F06"/>
</g>
<mask id="mask18_1_136" style="mask-type:luminance" maskUnits="userSpaceOnUse" x="902" y="60" width="62" height="61">
<path d="M902.374 60.0906H963.265V120.517H902.374V60.0906Z" fill="white"/>
</mask>
<g mask="url(#mask18_1_136)">
<path d="M902.908 60.2649V120.532H963.135V60.2649H902.908Z" fill="#CA2F06"/>
</g>
<mask id="mask19_1_136" style="mask-type:luminance" maskUnits="userSpaceOnUse" x="962" y="-1" width="62" height="62">
<path d="M962.631 -0.000366211H1023.52V60.7187H962.631V-0.000366211Z" fill="white"/>
</mask>
<g mask="url(#mask19_1_136)">
<path d="M963.134 0.00476074V60.265H1023.37V0.00476074H963.134Z" fill="#CA2F06"/>
</g>
<mask id="mask20_1_136" style="mask-type:luminance" maskUnits="userSpaceOnUse" x="1023" y="60" width="61" height="61">
<path d="M1023.05 60.0906H1083.79V120.517H1023.05V60.0906Z" fill="white"/>
</mask>
<g mask="url(#mask20_1_136)">
<path d="M1023.37 60.2649V120.532H1083.6V60.2649H1023.37Z" fill="#CA2F06"/>
</g>
<mask id="mask21_1_136" style="mask-type:luminance" maskUnits="userSpaceOnUse" x="1083" y="-1" width="62" height="62">
<path d="M1083.15 -0.000366211H1144.05V60.7187H1083.15V-0.000366211Z" fill="white"/>
</mask>
<g mask="url(#mask21_1_136)">
<path d="M1083.6 0.00476074V60.265H1143.83V0.00476074H1083.6Z" fill="#CA2F06"/>
</g>
<mask id="mask22_1_136" style="mask-type:luminance" maskUnits="userSpaceOnUse" x="1143" y="60" width="62" height="61">
<path d="M1143.42 60.0906H1204.02V120.517H1143.42V60.0906Z" fill="white"/>
</mask>
<g mask="url(#mask22_1_136)">
<path d="M1143.83 60.2649V120.532H1204.04V60.2649H1143.83Z" fill="#CA2F06"/>
</g>
<mask id="mask23_1_136" style="mask-type:luminance" maskUnits="userSpaceOnUse" x="1082" y="-1" width="62" height="62">
<path d="M1082.81 -0.000366211H1143.42V60.7187H1082.81V-0.000366211Z" fill="white"/>
</mask>
<g mask="url(#mask23_1_136)">
<path d="M1082.81 0.00476074V60.265H1143.05V0.00476074H1082.81Z" fill="#CA2F06"/>
</g>
<mask id="mask24_1_136" style="mask-type:luminance" maskUnits="userSpaceOnUse" x="1142" y="60" width="62" height="61">
<path d="M1142.79 60.0906H1203.68V120.517H1142.79V60.0906Z" fill="white"/>
</mask>
<g mask="url(#mask24_1_136)">
<path d="M1143.05 60.2646V120.532H1203.28V60.2646H1143.05Z" fill="#CA2F06"/>
</g>
<mask id="mask25_1_136" style="mask-type:luminance" maskUnits="userSpaceOnUse" x="1203" y="-1" width="61" height="62">
<path d="M1203.05 -0.000366211H1263.94V60.7187H1203.05V-0.000366211Z" fill="white"/>
</mask>
<g mask="url(#mask25_1_136)">
<path d="M1203.27 0.00476074V60.265H1263.5V0.00476074H1203.27Z" fill="#CA2F06"/>
</g>
<mask id="mask26_1_136" style="mask-type:luminance" maskUnits="userSpaceOnUse" x="1263" y="60" width="61" height="61">
<path d="M1263.31 60.0906H1323.72V120.517H1263.31V60.0906Z" fill="white"/>
</mask>
<g mask="url(#mask26_1_136)">
<path d="M1263.5 60.2649V120.532H1323.72V60.2649H1263.5Z" fill="#CA2F06"/>
</g>
<mask id="mask27_1_136" style="mask-type:luminance" maskUnits="userSpaceOnUse" x="1323" y="-1" width="62" height="62">
<path d="M1323.58 -0.000366211H1384.47V60.7187H1323.58V-0.000366211Z" fill="white"/>
</mask>
<g mask="url(#mask27_1_136)">
<path d="M1323.72 0.00476074V60.265H1383.97V0.00476074H1323.72Z" fill="#CA2F06"/>
</g>
<mask id="mask28_1_136" style="mask-type:luminance" maskUnits="userSpaceOnUse" x="1383" y="60" width="62" height="61">
<path d="M1383.83 60.0906H1444.72V120.517H1383.83V60.0906Z" fill="white"/>
</mask>
<g mask="url(#mask28_1_136)">
<path d="M1383.97 60.2649V120.532H1444.18V60.2649H1383.97Z" fill="#CA2F06"/>
</g>
</g>
</g>
<defs>
<filter id="filter0_n_1_136" x="-602" y="0" width="2649" height="120.775" filterUnits="userSpaceOnUse" color-interpolation-filters="sRGB">
<feFlood flood-opacity="0" result="BackgroundImageFix"/>
<feBlend mode="normal" in="SourceGraphic" in2="BackgroundImageFix" result="shape"/>
<feTurbulence type="fractalNoise" baseFrequency="0.4166666567325592 0.4166666567325592" stitchTiles="stitch" numOctaves="3" result="noise" seed="4704" />
<feColorMatrix in="noise" type="luminanceToAlpha" result="alphaNoise" />
<feComponentTransfer in="alphaNoise" result="coloredNoise1">
<feFuncA type="discrete" tableValues="1 1 1 1 1 1 1 1 1 1 1 1 1 1 1 1 1 1 1 1 1 1 1 1 1 1 1 1 1 1 1 1 1 1 1 1 1 1 1 1 1 1 1 1 1 1 1 1 1 1 1 0 0 0 0 0 0 0 0 0 0 0 0 0 0 0 0 0 0 0 0 0 0 0 0 0 0 0 0 0 0 0 0 0 0 0 0 0 0 0 0 0 0 0 0 0 0 0 0 0 "/>
</feComponentTransfer>
<feComposite operator="in" in2="shape" in="coloredNoise1" result="noise1Clipped" />
<feFlood flood-color="rgba(0, 0, 0, 0.08)" result="color1Flood" />
<feComposite operator="in" in2="noise1Clipped" in="color1Flood" result="color1" />
<feMerge result="effect1_noise_1_136">
<feMergeNode in="shape" />
<feMergeNode in="color1" />
</feMerge>
</filter>
<clipPath id="clip0_1_136">
<rect width="2649" height="120.775" fill="white" transform="translate(-602)"/>
</clipPath>
</defs>
</svg>
