<svg width="343" height="117" viewBox="0 0 343 117" fill="none" xmlns="http://www.w3.org/2000/svg">
<path d="M3.51818 86V35.6509H29.4745C33.5921 35.6509 36.98 36.4848 39.6382 38.1527C42.3485 39.7685 44.3552 41.9836 45.6582 44.7982C46.9612 47.6127 47.6127 50.74 47.6127 54.18C47.6127 57.7242 46.857 60.8776 45.3455 63.64C43.8339 66.4024 41.697 68.5655 38.9346 70.1291C36.1721 71.6927 32.9145 72.4745 29.1618 72.4745H18.2164V86H3.51818ZM18.2164 61.2164H25.8C28.0933 61.2164 29.7873 60.5648 30.8818 59.2618C32.0285 57.9588 32.6018 56.2648 32.6018 54.18C32.6018 51.9388 32.0806 50.1667 31.0382 48.8636C29.9958 47.5606 28.38 46.9091 26.1909 46.9091H18.2164V61.2164ZM51.542 86V35.6509H66.2402V86H51.542ZM71.7379 86V78.6509L93.6288 46.9091H72.9107V35.6509H112.94V43.3127L91.2834 74.7418H113.409V86H71.7379ZM115.792 86V78.6509L137.682 46.9091H116.964V35.6509H156.993V43.3127L135.337 74.7418H157.462V86H115.792ZM226.688 86V35.6509H252.878C256.996 35.6509 260.358 36.4067 262.964 37.9182C265.622 39.4297 267.603 41.5406 268.906 44.2509C270.209 46.9091 270.86 50.0103 270.86 53.5545C270.86 56.9424 270 59.9394 268.28 62.5455C266.612 65.0994 264.371 67.0539 261.557 68.4091C262.13 68.8782 262.625 69.4515 263.042 70.1291C263.459 70.7545 263.928 71.6406 264.449 72.7873L270.235 86H254.911L249.595 73.8818C249.178 72.9436 248.657 72.2921 248.031 71.9273C247.458 71.5103 246.624 71.3018 245.529 71.3018H241.386V86H226.688ZM241.386 60.0436H249.126C251.263 60.0436 252.905 59.4964 254.051 58.4018C255.25 57.2551 255.849 55.6394 255.849 53.5545C255.849 49.1242 253.765 46.9091 249.595 46.9091H241.386V60.0436ZM299.328 86.7818C290.988 86.7818 284.603 84.7491 280.173 80.6836C275.795 76.6182 273.606 70.0509 273.606 60.9818C273.606 54.7273 274.596 49.6976 276.577 45.8927C278.557 42.0358 281.45 39.2473 285.255 37.5273C289.112 35.7551 293.803 34.8691 299.328 34.8691C304.853 34.8691 309.517 35.7551 313.322 37.5273C317.179 39.2473 320.098 42.0358 322.079 45.8927C324.059 49.6976 325.049 54.7273 325.049 60.9818C325.049 70.0509 322.834 76.6182 318.404 80.6836C313.974 84.7491 307.615 86.7818 299.328 86.7818ZM299.328 74.2727C303.08 74.2727 305.791 73.2303 307.459 71.1455C309.179 69.0085 310.039 65.6206 310.039 60.9818C310.039 56.0303 309.179 52.5382 307.459 50.5054C305.791 48.4206 303.08 47.3782 299.328 47.3782C295.575 47.3782 292.839 48.4206 291.119 50.5054C289.451 52.5382 288.617 56.0303 288.617 60.9818C288.617 65.6206 289.451 69.0085 291.119 71.1455C292.839 73.2303 295.575 74.2727 299.328 74.2727ZM328.959 86V75.4455H340.53V86H328.959Z" fill="white"/>
<path d="M177.114 54.8576C176.597 55.0589 176.146 55.3595 175.743 55.7214L179.556 63.5364C180.454 63.3752 181.304 62.9699 181.97 62.3042C183.741 60.5331 183.74 57.6523 181.969 55.8812C180.697 54.6095 178.791 54.2063 177.114 54.8576Z" fill="white"/>
<path d="M199.483 65.4933C197.833 64.9374 196.045 65.3539 194.814 66.5841C193.043 68.3551 193.043 71.2367 194.814 73.0077C195.699 73.8919 196.875 74.3629 198.125 74.336C198.218 74.334 198.306 74.3103 198.399 74.3031L201.805 67.3196C201.228 66.4624 200.45 65.8203 199.483 65.4933Z" fill="white"/>
<path d="M196.955 51.6005C196.365 52.1906 196.364 53.1505 196.955 53.7413C197.546 54.3321 198.506 54.3314 199.096 53.7413C199.687 53.1505 199.687 52.1913 199.096 51.6005C198.505 51.0097 197.546 51.0097 196.955 51.6005Z" fill="white"/>
<mask id="mask0_1_1923" style="mask-type:luminance" maskUnits="userSpaceOnUse" x="163" y="14" width="57" height="56">
<path d="M163.995 41.8906L191.545 14.3404L219.164 41.9597L191.614 69.5099L163.995 41.8906Z" fill="white"/>
</mask>
<g mask="url(#mask0_1_1923)">
<path d="M214.85 37.8226C200.292 30.1681 182.912 30.1681 168.35 37.8246C166.131 39.0087 165.396 41.7528 166.531 43.8935C167.652 46.102 170.308 46.9836 172.482 45.9113C172.54 45.8889 172.594 45.8632 172.649 45.8363C184.517 39.6416 198.688 39.6416 210.556 45.8356C210.608 45.8632 210.664 45.8869 210.719 45.9093C212.946 47.0106 215.587 46.0395 216.658 43.9238C217.886 41.6324 216.899 38.837 214.85 37.8226Z" fill="white"/>
</g>
<mask id="mask1_1_1923" style="mask-type:luminance" maskUnits="userSpaceOnUse" x="162" y="29" width="59" height="59">
<path d="M162.805 58.5732L191.613 29.7652L220.353 58.5048L191.545 87.3129L162.805 58.5732Z" fill="white"/>
</mask>
<g mask="url(#mask1_1_1923)">
<path d="M209.376 48.6214C197.142 42.2511 185.738 43.2511 173.562 48.7385C173.24 48.901 172.887 49.0214 172.524 49.1253L174.385 52.9417C174.889 52.5825 175.424 52.2654 176.017 52.0345C178.813 50.9516 181.989 51.6207 184.108 53.7404C187.06 56.6917 187.06 61.4942 184.108 64.4455C183.205 65.3487 182.084 65.9382 180.896 66.2902L190.234 85.8846C190.488 86.405 191.015 86.7339 191.594 86.7339C192.182 86.7339 192.708 86.3938 192.954 85.8846L196.951 77.2676C195.34 77.0413 193.848 76.3262 192.672 75.1499C189.721 72.1986 189.721 67.3961 192.672 64.4448C194.722 62.3948 197.701 61.6981 200.449 62.6264C201.526 62.9902 202.426 63.6409 203.222 64.4132L210.682 49.1188C210.236 48.9951 209.799 48.8313 209.376 48.6214ZM193.115 59.0929C193.115 59.9291 192.438 60.6067 191.601 60.6067C190.765 60.6067 190.088 59.9291 190.087 59.0929C190.088 58.2568 190.765 57.5791 191.601 57.5791C192.438 57.5791 193.115 58.2568 193.115 59.0929ZM185.179 49.9023C184.342 49.9023 183.665 49.2247 183.666 48.3885C183.665 47.5523 184.342 46.8747 185.179 46.8754L189.46 46.8754C190.296 46.8747 190.974 47.5523 190.974 48.3892C190.974 49.2247 190.296 49.9023 189.461 49.9023L185.179 49.9023ZM201.235 55.8818C199.465 57.6522 196.584 57.6528 194.813 55.8818C193.042 54.1108 193.042 51.2299 194.813 49.4595C196.584 47.6885 199.465 47.6879 201.236 49.4589C203.007 51.2299 203.006 54.1108 201.235 55.8818Z" fill="white"/>
</g>
</svg>
